<svg width="176" height="42" viewBox="0 0 176 42" fill="none" xmlns="http://www.w3.org/2000/svg">
<path d="M3.896 29.908C3.44 29.908 3.02 29.74 2.636 29.404C2.276 29.092 1.964 28.708 1.7 28.252C1.46 27.796 1.28 27.352 1.16 26.92C0.92 25.96 0.74 24.856 0.62 23.608C0.524 22.36 0.476 21.04 0.476 19.648C0.476 18.136 0.524 16.588 0.62 15.004C0.74 13.42 0.896 11.896 1.088 10.432C1.28 8.944 1.496 7.6 1.736 6.4C2 5.2 2.264 4.216 2.528 3.448C2.552 3.376 2.6 3.34 2.672 3.34C2.768 3.316 2.852 3.304 2.924 3.304C3.548 3.304 4.028 3.4 4.364 3.592C4.7 3.784 4.964 4.132 5.156 4.636C5.084 4.948 4.952 5.524 4.76 6.364C4.592 7.18 4.388 8.176 4.148 9.352C3.932 10.528 3.716 11.812 3.5 13.204C3.284 14.572 3.092 15.964 2.924 17.38C2.78 18.796 2.684 20.164 2.636 21.484C2.636 21.724 2.624 21.976 2.6 22.24C2.6 22.504 2.6 22.78 2.6 23.068C2.6 23.884 2.636 24.712 2.708 25.552C2.804 26.368 2.972 27.052 3.212 27.604C3.452 28.156 3.812 28.432 4.292 28.432C4.532 28.432 4.748 28.36 4.94 28.216C5.132 28.072 5.264 27.916 5.336 27.748C5.408 27.556 5.492 27.46 5.588 27.46C5.732 27.46 5.804 27.58 5.804 27.82V27.892C5.804 28.228 5.72 28.564 5.552 28.9C5.384 29.26 5.12 29.524 4.76 29.692C4.472 29.836 4.184 29.908 3.896 29.908ZM17.18 28.324C16.484 28.324 15.764 28.228 15.02 28.036C14.3 27.844 13.628 27.568 13.004 27.208C11.924 26.584 10.868 25.792 9.836 24.832C8.804 23.848 7.88 22.78 7.064 21.628C6.272 20.452 5.648 19.288 5.192 18.136C4.952 17.512 4.76 16.936 4.616 16.408C4.472 15.856 4.4 15.328 4.4 14.824C4.4 14.128 4.568 13.456 4.904 12.808C5.264 12.136 5.852 11.428 6.668 10.684C7.244 10.18 7.964 9.604 8.828 8.956C9.716 8.308 10.676 7.66 11.708 7.012C12.764 6.364 13.796 5.764 14.804 5.212C15.836 4.66 16.784 4.216 17.648 3.88C18.536 3.544 19.244 3.376 19.772 3.376H19.88C20.528 3.376 20.852 3.472 20.852 3.664C20.852 3.808 20.624 3.94 20.168 4.06C19.712 4.156 19.04 4.42 18.152 4.852C17.264 5.284 16.28 5.812 15.2 6.436C14.144 7.06 13.088 7.732 12.032 8.452C11 9.148 10.088 9.832 9.296 10.504C8.504 11.176 7.964 11.764 7.676 12.268C7.484 12.604 7.328 12.952 7.208 13.312C7.088 13.672 7.028 14.056 7.028 14.464C7.028 15.256 7.28 16.12 7.784 17.056C8.768 18.808 9.908 20.452 11.204 21.988C12.5 23.5 13.856 24.64 15.272 25.408C15.56 25.576 15.992 25.792 16.568 26.056C17.168 26.296 17.708 26.416 18.188 26.416C18.476 26.416 18.716 26.344 18.908 26.2C19.124 26.056 19.244 25.804 19.268 25.444V25.3C19.268 24.7 19.076 24.064 18.692 23.392C18.332 22.72 17.996 22.156 17.684 21.7C17.444 21.292 17.324 21.004 17.324 20.836C17.324 20.692 17.384 20.62 17.504 20.62C17.792 20.62 18.14 20.848 18.548 21.304C18.788 21.544 19.04 21.844 19.304 22.204C19.568 22.54 19.796 22.888 19.988 23.248C20.516 24.208 20.78 25.036 20.78 25.732C20.78 26.62 20.42 27.28 19.7 27.712C19.004 28.12 18.164 28.324 17.18 28.324ZM25.116 9.784C24.66 9.784 24.252 9.616 23.892 9.28C23.556 8.944 23.388 8.536 23.388 8.056C23.388 7.576 23.556 7.168 23.892 6.832C24.252 6.496 24.66 6.328 25.116 6.328C25.596 6.328 26.004 6.496 26.34 6.832C26.676 7.168 26.844 7.576 26.844 8.056C26.844 8.536 26.676 8.944 26.34 9.28C26.004 9.616 25.596 9.784 25.116 9.784ZM25.548 28.36C24.684 28.36 23.976 28.06 23.424 27.46C22.896 26.86 22.488 26.128 22.2 25.264C21.936 24.376 21.744 23.524 21.624 22.708C21.552 22.156 21.504 21.64 21.48 21.16C21.48 20.656 21.48 20.164 21.48 19.684C21.528 18.316 21.648 17.056 21.84 15.904C22.056 14.752 22.272 13.972 22.488 13.564C22.632 13.276 22.86 13.012 23.172 12.772C23.508 12.508 23.952 12.376 24.504 12.376C24.816 12.376 25.128 12.412 25.44 12.484C25.2 13.324 24.912 14.5 24.576 16.012C24.24 17.5 24.072 19.144 24.072 20.944C24.072 21.856 24.132 22.78 24.252 23.716C24.372 24.652 24.6 25.444 24.936 26.092C25.296 26.716 25.788 27.028 26.412 27.028C26.916 27.028 27.36 26.836 27.744 26.452C28.224 25.996 28.584 25.384 28.824 24.616C29.088 23.848 29.316 23.068 29.508 22.276C29.58 21.94 29.7 21.772 29.868 21.772C30.036 21.772 30.12 21.916 30.12 22.204C30.12 22.276 30.108 22.36 30.084 22.456C30.084 22.552 30.072 22.66 30.048 22.78C29.904 23.596 29.652 24.436 29.292 25.3C28.956 26.164 28.488 26.896 27.888 27.496C27.288 28.072 26.508 28.36 25.548 28.36ZM32.7441 28.18C32.0241 28.18 31.4361 27.952 30.9801 27.496C30.5481 27.04 30.2121 26.464 29.9721 25.768C29.7321 25.072 29.5641 24.352 29.4681 23.608C29.3961 22.864 29.3601 22.204 29.3601 21.628V21.088C29.3841 20.8 29.4081 20.26 29.4321 19.468C29.4561 18.676 29.4921 17.752 29.5401 16.696C29.5881 15.616 29.6601 14.524 29.7561 13.42H28.6401C28.4481 13.42 28.3521 13.3 28.3521 13.06C28.3521 12.94 28.4001 12.82 28.4961 12.7C28.5681 12.556 28.6641 12.484 28.7841 12.484H29.8281C29.9241 11.356 30.0321 10.336 30.1521 9.424C30.2721 8.512 30.4161 7.864 30.5841 7.48C30.7041 7.216 30.9201 6.988 31.2321 6.796C31.5441 6.58 31.9641 6.472 32.4921 6.472C32.6361 6.472 32.7921 6.484 32.9601 6.508C33.1521 6.532 33.3321 6.568 33.5001 6.616C33.3801 7.024 33.2361 7.768 33.0681 8.848C32.9241 9.904 32.7921 11.116 32.6721 12.484H35.5521C35.7681 12.484 35.8761 12.616 35.8761 12.88C35.8761 13 35.8401 13.12 35.7681 13.24C35.6961 13.36 35.5881 13.42 35.4441 13.42H32.5641C32.4441 14.74 32.3481 16.108 32.2761 17.524C32.2041 18.916 32.1561 20.2 32.1321 21.376V22.204C32.1321 22.828 32.1561 23.512 32.2041 24.256C32.2521 25 32.3721 25.636 32.5641 26.164C32.7561 26.692 33.0441 26.956 33.4281 26.956H33.4641C33.6561 26.956 33.8601 26.86 34.0761 26.668C34.3161 26.476 34.5681 26.116 34.8321 25.588C35.0241 25.252 35.1921 24.856 35.3361 24.4C35.5041 23.92 35.6721 23.416 35.8401 22.888C35.9361 22.672 36.0321 22.564 36.1281 22.564C36.2481 22.564 36.3081 22.708 36.3081 22.996V23.14C36.2601 23.764 36.0921 24.472 35.8041 25.264C35.5161 26.056 35.1081 26.74 34.5801 27.316C34.0761 27.892 33.4641 28.18 32.7441 28.18ZM40.7968 28.54C39.6928 28.54 38.7928 28.288 38.0968 27.784C37.4008 27.256 36.8728 26.584 36.5128 25.768C36.1768 24.928 35.9728 24.028 35.9008 23.068C35.8768 22.876 35.8648 22.696 35.8648 22.528C35.8648 22.336 35.8648 22.144 35.8648 21.952C35.8648 20.968 35.9608 19.924 36.1528 18.82C36.3688 17.692 36.7168 16.636 37.1968 15.652C37.6768 14.668 38.3008 13.864 39.0688 13.24C39.8608 12.616 40.8328 12.304 41.9848 12.304C42.7048 12.304 43.2808 12.58 43.7128 13.132C44.1688 13.66 44.3968 14.272 44.3968 14.968C44.3968 15.712 44.2768 16.264 44.0368 16.624C43.7968 16.96 43.5088 17.128 43.1728 17.128C42.5968 17.128 42.3088 16.516 42.3088 15.292C42.3088 14.812 42.2368 14.368 42.0928 13.96C41.9488 13.552 41.6728 13.348 41.2648 13.348C40.8088 13.348 40.4248 13.576 40.1128 14.032C39.8248 14.464 39.5848 15.028 39.3928 15.724C39.2008 16.396 39.0448 17.116 38.9248 17.884C38.8288 18.628 38.7568 19.336 38.7088 20.008C38.6848 20.656 38.6728 21.16 38.6728 21.52V21.664C38.6728 22.648 38.7568 23.572 38.9248 24.436C39.0928 25.3 39.4048 25.996 39.8608 26.524C40.3168 27.052 40.9528 27.316 41.7688 27.316C42.5608 27.316 43.2208 27.1 43.7488 26.668C44.2768 26.212 44.6968 25.66 45.0088 25.012C45.3448 24.34 45.5968 23.656 45.7648 22.96C45.9568 22.264 46.1008 21.676 46.1968 21.196C46.2688 20.908 46.3648 20.764 46.4848 20.764C46.6528 20.764 46.7368 20.968 46.7368 21.376C46.7368 21.448 46.7248 21.544 46.7008 21.664C46.7008 21.76 46.6888 21.868 46.6648 21.988C46.4248 23.164 46.1128 24.256 45.7288 25.264C45.3448 26.248 44.7688 27.04 44.0008 27.64C43.2328 28.24 42.1648 28.54 40.7968 28.54ZM54.6065 28.18C53.9585 28.18 53.4065 27.976 52.9505 27.568C52.5185 27.136 52.2425 26.584 52.1225 25.912C52.0745 25.648 52.0385 25.36 52.0145 25.048C51.9905 24.736 51.9785 24.412 51.9785 24.076C51.9785 23.308 52.0145 22.516 52.0865 21.7C52.1825 20.86 52.2905 20.068 52.4105 19.324C52.5305 18.58 52.6265 17.968 52.6985 17.488C52.7705 17.056 52.8065 16.612 52.8065 16.156C52.8065 15.748 52.7705 15.388 52.6985 15.076C52.6265 14.764 52.4705 14.608 52.2305 14.608C52.1105 14.608 51.9545 14.68 51.7625 14.824C51.5705 14.968 51.3425 15.208 51.0785 15.544C50.6225 16.144 50.1425 17.032 49.6385 18.208C49.1585 19.36 48.7865 20.644 48.5225 22.06C48.4985 22.276 48.4625 22.624 48.4145 23.104C48.3665 23.584 48.3185 24.1 48.2705 24.652C48.2225 25.204 48.1745 25.696 48.1265 26.128C48.0785 26.56 48.0185 26.836 47.9465 26.956C47.7065 27.412 47.3945 27.724 47.0105 27.892C46.6505 28.06 46.3145 28.144 46.0025 28.144C46.0505 27.952 46.0865 27.604 46.1105 27.1C46.1345 26.596 46.1585 25.996 46.1825 25.3C46.2305 24.724 46.2545 24.16 46.2545 23.608C46.2545 23.032 46.2545 22.456 46.2545 21.88C46.2545 20.584 46.2305 19.288 46.1825 17.992C46.1345 16.696 46.0625 15.412 45.9665 14.14C45.9425 13.732 45.9065 13.18 45.8585 12.484C45.8345 11.764 45.8225 10.984 45.8225 10.144C45.8225 9.112 45.8705 8.044 45.9665 6.94C46.0625 5.836 46.2425 4.804 46.5065 3.844C46.7705 2.884 47.1425 2.116 47.6225 1.54C48.1265 0.939999 48.7745 0.639998 49.5665 0.639998C50.4785 0.639998 51.1025 0.999999 51.4385 1.72C51.7745 2.416 51.9425 3.268 51.9425 4.276C51.9425 5.308 51.8225 6.412 51.5825 7.588C51.3665 8.74 51.1145 9.784 50.8265 10.72C50.5625 11.656 50.3585 12.328 50.2145 12.736C49.9025 13.624 49.5425 14.524 49.1345 15.436C48.7505 16.348 48.3545 17.212 47.9465 18.028L48.0545 20.728C48.3185 19.624 48.6545 18.556 49.0625 17.524C49.4945 16.468 50.0345 15.46 50.6825 14.5C51.0425 13.948 51.4865 13.408 52.0145 12.88C52.5665 12.328 53.2025 12.052 53.9225 12.052C54.6425 12.052 55.1225 12.292 55.3625 12.772C55.6025 13.252 55.7225 13.78 55.7225 14.356C55.7225 14.956 55.6625 15.496 55.5425 15.976C55.5185 16.168 55.4465 16.54 55.3265 17.092C55.2065 17.644 55.0745 18.304 54.9305 19.072C54.8105 19.84 54.7025 20.644 54.6065 21.484C54.5105 22.3 54.4625 23.068 54.4625 23.788C54.4625 24.436 54.5225 25.024 54.6425 25.552C54.8585 26.392 55.2305 26.812 55.7585 26.812C55.9025 26.812 56.0945 26.752 56.3345 26.632C56.8385 26.32 57.2225 25.888 57.4865 25.336C57.7505 24.76 58.0025 24.1 58.2425 23.356C58.3385 23.092 58.4825 22.96 58.6745 22.96C58.7945 22.96 58.8545 23.08 58.8545 23.32V23.464C58.8545 23.632 58.8065 23.86 58.7105 24.148C58.6385 24.412 58.5545 24.676 58.4585 24.94C58.1465 25.828 57.6785 26.596 57.0545 27.244C56.4545 27.868 55.6625 28.18 54.6785 28.18H54.6065ZM47.9105 16.516C48.4385 15.34 48.9185 14.104 49.3505 12.808C49.7825 11.488 50.1305 10.18 50.3945 8.884C50.6585 7.588 50.7905 6.4 50.7905 5.32V4.96C50.7665 4.264 50.6825 3.688 50.5385 3.232C50.4185 2.776 50.2145 2.548 49.9265 2.548C49.5665 2.548 49.2425 3.064 48.9545 4.096C48.6665 5.104 48.4385 6.316 48.2705 7.732C48.1265 8.98 48.0305 10.228 47.9825 11.476C47.9345 12.7 47.9105 13.912 47.9105 15.112V16.516ZM64.16 28.684C62.984 28.684 61.976 28.408 61.136 27.856C60.32 27.304 59.684 26.572 59.228 25.66C58.796 24.724 58.556 23.716 58.508 22.636V21.916C58.508 20.764 58.628 19.612 58.868 18.46C59.132 17.308 59.528 16.252 60.056 15.292C60.584 14.332 61.256 13.564 62.072 12.988C62.888 12.388 63.86 12.088 64.988 12.088H65.24C65.912 12.112 66.392 12.364 66.68 12.844C66.992 13.324 67.148 13.84 67.148 14.392V14.536C67.148 15.832 66.848 16.96 66.248 17.92C65.672 18.856 64.94 19.612 64.052 20.188C63.164 20.764 62.24 21.16 61.28 21.376V21.556C61.28 22.156 61.328 22.804 61.424 23.5C61.52 24.172 61.7 24.82 61.964 25.444C62.228 26.068 62.6 26.584 63.08 26.992C63.56 27.376 64.172 27.568 64.916 27.568C65.828 27.568 66.596 27.28 67.22 26.704C67.844 26.128 68.324 25.444 68.66 24.652C68.804 24.316 68.924 23.944 69.02 23.536C69.14 23.104 69.248 22.648 69.344 22.168C69.392 21.88 69.488 21.736 69.632 21.736C69.824 21.736 69.92 21.94 69.92 22.348C69.92 22.42 69.908 22.504 69.884 22.6C69.884 22.672 69.872 22.768 69.848 22.888C69.704 23.728 69.5 24.472 69.236 25.12C68.756 26.368 68.12 27.28 67.328 27.856C66.56 28.408 65.504 28.684 64.16 28.684ZM61.316 20.584C62.06 20.368 62.708 19.984 63.26 19.432C63.836 18.856 64.292 18.184 64.628 17.416C64.964 16.648 65.144 15.868 65.168 15.076V14.86C65.168 14.452 65.096 14.056 64.952 13.672C64.808 13.288 64.568 13.096 64.232 13.096H64.196C63.764 13.096 63.38 13.312 63.044 13.744C62.732 14.152 62.468 14.68 62.252 15.328C62.036 15.976 61.856 16.648 61.712 17.344C61.568 18.04 61.46 18.676 61.388 19.252C61.34 19.828 61.316 20.248 61.316 20.512V20.584ZM70.2721 28.288C69.9361 28.288 69.6481 28.168 69.4081 27.928C69.1921 27.664 69.0841 27.232 69.0841 26.632C69.0841 26.536 69.0841 26.44 69.0841 26.344C69.0841 26.224 69.0961 26.104 69.1201 25.984C69.1681 25.552 69.2161 24.952 69.2641 24.184C69.3361 23.416 69.3841 22.552 69.4081 21.592C69.4561 20.632 69.4801 19.672 69.4801 18.712C69.4801 17.704 69.4441 16.756 69.3721 15.868C69.3241 14.956 69.2281 14.236 69.0841 13.708C69.2761 13.66 69.5281 13.528 69.8401 13.312C70.1521 13.096 70.4761 12.952 70.8121 12.88C70.8841 12.856 70.9801 12.844 71.1001 12.844C71.5081 12.844 71.7601 13.06 71.8561 13.492C71.9761 13.924 72.0361 14.452 72.0361 15.076C72.0361 15.508 72.0241 16.024 72.0001 16.624C72.0001 17.2 71.9761 17.704 71.9281 18.136C72.1921 17.368 72.4801 16.708 72.7921 16.156C73.1041 15.58 73.4401 15.028 73.8001 14.5C74.1601 13.948 74.5441 13.408 74.9521 12.88C75.3601 12.328 75.9121 12.052 76.6081 12.052C77.3281 12.052 77.7961 12.292 78.0121 12.772C78.2281 13.252 78.3361 13.78 78.3361 14.356C78.3361 14.668 78.3241 14.968 78.3001 15.256C78.2761 15.52 78.2521 15.772 78.2281 16.012C78.2281 16.18 78.1921 16.624 78.1201 17.344C78.0481 18.04 77.9761 18.868 77.9041 19.828C77.8321 20.764 77.7961 21.712 77.7961 22.672C77.7961 22.936 77.8081 23.308 77.8321 23.788C77.8561 24.244 77.9041 24.712 77.9761 25.192C78.0481 25.648 78.1681 26.044 78.3361 26.38C78.5281 26.692 78.7801 26.848 79.0921 26.848C79.2841 26.848 79.5001 26.776 79.7401 26.632C80.0041 26.44 80.2321 26.188 80.4241 25.876C80.6401 25.564 80.8081 25.252 80.9281 24.94C81.0241 24.724 81.1201 24.484 81.2161 24.22C81.3121 23.956 81.3961 23.68 81.4681 23.392C81.5641 23.104 81.6961 22.96 81.8641 22.96C81.9841 22.96 82.0441 23.08 82.0441 23.32V23.464C82.0441 23.632 82.0081 23.848 81.9361 24.112C81.8881 24.376 81.8161 24.64 81.7201 24.904C81.4321 25.792 81.0001 26.572 80.4241 27.244C79.8721 27.892 79.0921 28.216 78.0841 28.216C77.4121 28.216 76.8841 27.964 76.5001 27.46C76.1401 26.932 75.8761 26.26 75.7081 25.444C75.6121 24.988 75.5401 24.532 75.4921 24.076C75.4681 23.62 75.4561 23.164 75.4561 22.708C75.4561 21.58 75.5281 20.464 75.6721 19.36C75.8401 18.232 75.9241 17.152 75.9241 16.12C75.9241 15.784 75.8761 15.472 75.7801 15.184C75.7081 14.872 75.5281 14.716 75.2401 14.716C74.9521 14.716 74.6041 14.992 74.1961 15.544C73.7881 16.072 73.3681 16.852 72.9361 17.884C72.5041 18.892 72.1441 20.044 71.8561 21.34C71.5681 22.612 71.4241 23.92 71.4241 25.264C71.4241 26.08 71.4961 26.908 71.6401 27.748C71.4721 27.868 71.2561 27.988 70.9921 28.108C70.7281 28.228 70.4881 28.288 70.2721 28.288ZM91.0703 29.98C90.3263 29.98 89.6663 29.644 89.0903 28.972C88.5383 28.3 88.2023 27.244 88.0823 25.804C88.0583 25.636 88.0463 25.468 88.0463 25.3C88.0463 25.132 88.0463 24.964 88.0463 24.796C88.0463 23.5 88.1783 22.096 88.4423 20.584C88.7063 19.072 88.9943 17.608 89.3063 16.192C89.3543 15.952 89.4503 15.484 89.5943 14.788C89.7623 14.068 89.9303 13.216 90.0983 12.232C90.2663 11.248 90.4103 10.216 90.5303 9.136C90.6503 8.032 90.7103 7 90.7103 6.04C90.7103 4.84 90.5783 3.832 90.3143 3.016C90.0503 2.2 89.5583 1.792 88.8383 1.792C88.0703 1.792 87.3623 2.116 86.7143 2.764C86.0663 3.388 85.4783 4.216 84.9503 5.248C84.4463 6.256 84.0023 7.36 83.6183 8.56C83.2583 9.76 82.9823 10.948 82.7903 12.124C82.5983 13.276 82.5023 14.296 82.5023 15.184C82.5023 15.784 82.5503 16.3 82.6463 16.732C82.7423 17.14 82.8983 17.404 83.1143 17.524C83.2823 17.62 83.3663 17.74 83.3663 17.884C83.3663 18.172 83.2103 18.316 82.8983 18.316C82.7303 18.316 82.5743 18.244 82.4303 18.1C82.1183 17.74 81.8543 17.14 81.6383 16.3C81.4223 15.46 81.3143 14.488 81.3143 13.384C81.3143 12.712 81.3623 12.016 81.4583 11.296C81.5543 10.576 81.6983 9.844 81.8903 9.1C82.1543 8.116 82.5263 7.12 83.0063 6.112C83.4863 5.08 84.0863 4.132 84.8063 3.268C85.5263 2.38 86.3663 1.672 87.3263 1.144C88.3103 0.615999 89.4143 0.352 90.6383 0.352C91.5023 0.352 92.1743 0.58 92.6543 1.036C93.1343 1.468 93.4703 2.056 93.6623 2.8C93.8783 3.544 93.9863 4.372 93.9863 5.284C93.9863 6.364 93.8783 7.492 93.6623 8.668C93.4703 9.82 93.2423 10.888 92.9783 11.872C92.7383 12.832 92.5463 13.588 92.4023 14.14C92.1383 15.124 91.8623 16.204 91.5743 17.38C91.2863 18.556 91.0463 19.744 90.8543 20.944C90.6863 22.12 90.6023 23.248 90.6023 24.328V24.904C90.6503 25.96 90.8303 26.728 91.1423 27.208C91.4783 27.664 91.8983 27.892 92.4023 27.892C93.2903 27.892 94.1303 27.556 94.9223 26.884C95.7143 26.188 96.4463 25.264 97.1183 24.112C97.8143 22.96 98.4383 21.664 98.9903 20.224C99.5423 18.784 100.022 17.296 100.43 15.76C100.262 15.352 100.118 14.74 99.9983 13.924C99.8783 13.084 99.8183 12.208 99.8183 11.296C99.8183 10.264 99.9143 9.292 100.106 8.38C100.322 7.468 100.67 6.832 101.15 6.472C101.294 6.376 101.462 6.328 101.654 6.328C101.918 6.328 102.194 6.448 102.482 6.688C102.77 6.928 102.914 7.396 102.914 8.092V8.236C102.914 9.028 102.842 9.916 102.698 10.9C102.554 11.884 102.35 12.94 102.086 14.068C102.158 14.86 102.278 15.82 102.446 16.948C102.614 18.076 102.842 19.24 103.13 20.44C103.442 21.64 103.814 22.768 104.246 23.824C104.702 24.856 105.242 25.696 105.866 26.344C106.514 26.992 107.246 27.316 108.062 27.316C109.046 27.316 109.862 27.016 110.51 26.416C111.158 25.792 111.674 25 112.058 24.04C112.466 23.08 112.766 22.072 112.958 21.016C113.174 19.96 113.318 18.976 113.39 18.064C113.462 17.152 113.498 16.444 113.498 15.94C113.498 13.66 113.282 11.608 112.85 9.784C112.442 7.936 111.818 6.484 110.978 5.428C110.546 5.356 110.102 5.212 109.646 4.996C109.19 4.756 108.806 4.504 108.494 4.24C108.206 3.952 108.062 3.712 108.062 3.52C108.062 3.208 108.434 3.052 109.178 3.052C109.274 3.052 109.382 3.052 109.502 3.052C109.622 3.052 109.754 3.064 109.898 3.088C111.386 3.232 112.646 4 113.678 5.392C114.014 5.392 114.362 5.392 114.722 5.392C115.106 5.368 115.442 5.32 115.73 5.248H115.838C116.078 5.248 116.198 5.356 116.198 5.572C116.198 5.74 116.102 5.86 115.91 5.932C115.478 6.076 115.058 6.148 114.65 6.148C114.554 6.148 114.47 6.148 114.398 6.148C114.326 6.148 114.242 6.136 114.146 6.112C114.722 7.12 115.178 8.404 115.514 9.964C115.85 11.5 116.018 13.336 116.018 15.472C116.018 16.312 115.922 17.296 115.73 18.424C115.562 19.528 115.286 20.668 114.902 21.844C114.518 22.996 114.014 24.064 113.39 25.048C112.79 26.032 112.058 26.836 111.194 27.46C110.354 28.06 109.37 28.36 108.242 28.36C107.114 28.36 106.13 28.06 105.29 27.46C104.45 26.86 103.742 26.068 103.166 25.084C102.614 24.076 102.146 22.984 101.762 21.808C101.402 20.608 101.126 19.42 100.934 18.244C100.454 19.732 99.8783 21.172 99.2063 22.564C98.5583 23.956 97.8143 25.216 96.9743 26.344C96.1583 27.448 95.2583 28.324 94.2743 28.972C93.2903 29.644 92.2223 29.98 91.0703 29.98ZM122.604 9.784C122.148 9.784 121.74 9.616 121.38 9.28C121.044 8.944 120.876 8.536 120.876 8.056C120.876 7.576 121.044 7.168 121.38 6.832C121.74 6.496 122.148 6.328 122.604 6.328C123.084 6.328 123.492 6.496 123.828 6.832C124.164 7.168 124.332 7.576 124.332 8.056C124.332 8.536 124.164 8.944 123.828 9.28C123.492 9.616 123.084 9.784 122.604 9.784ZM122.352 28.18C121.488 28.18 120.804 27.82 120.3 27.1C119.82 26.356 119.472 25.42 119.256 24.292C119.064 23.14 118.968 21.94 118.968 20.692C118.968 19.66 119.016 18.664 119.112 17.704C119.232 16.72 119.364 15.868 119.508 15.148C119.676 14.404 119.832 13.876 119.976 13.564C120.12 13.276 120.348 13.012 120.66 12.772C120.996 12.508 121.44 12.376 121.992 12.376C122.304 12.376 122.616 12.412 122.928 12.484C122.688 13.324 122.4 14.488 122.064 15.976C121.728 17.464 121.56 19.108 121.56 20.908C121.56 21.532 121.572 22.204 121.596 22.924C121.62 23.62 121.68 24.28 121.776 24.904C121.872 25.504 122.016 25.996 122.208 26.38C122.424 26.764 122.7 26.956 123.036 26.956H123.072C123.264 26.956 123.468 26.86 123.684 26.668C123.924 26.476 124.176 26.116 124.44 25.588C124.8 24.892 125.136 23.992 125.448 22.888C125.496 22.672 125.592 22.564 125.736 22.564C125.856 22.564 125.916 22.708 125.916 22.996V23.14C125.868 23.764 125.7 24.472 125.412 25.264C125.124 26.056 124.716 26.74 124.188 27.316C123.684 27.892 123.072 28.18 122.352 28.18ZM128.323 41.212C127.027 41.212 126.127 40.852 125.623 40.132C125.143 39.436 124.903 38.608 124.903 37.648C124.903 36.808 125.035 35.956 125.299 35.092C125.563 34.252 125.863 33.544 126.199 32.968C126.679 32.128 127.303 31.228 128.071 30.268C128.863 29.308 129.751 28.372 130.735 27.46C131.743 26.524 132.799 25.708 133.903 25.012C133.687 24.364 133.375 23.908 132.967 23.644C132.583 23.38 132.175 23.248 131.743 23.248C131.287 23.248 130.855 23.368 130.447 23.608C130.039 23.824 129.703 24.1 129.439 24.436V24.616C129.439 25.264 129.295 25.828 129.007 26.308C128.719 26.764 128.347 26.992 127.891 26.992C127.555 26.992 127.351 26.776 127.279 26.344C127.279 26.296 127.267 26.26 127.243 26.236C127.243 26.188 127.243 26.14 127.243 26.092C127.243 25.612 127.423 24.94 127.783 24.076C128.167 23.188 128.647 22.228 129.223 21.196C129.799 20.164 130.387 19.156 130.987 18.172C131.611 17.164 132.175 16.276 132.679 15.508C133.183 14.74 133.531 14.188 133.723 13.852C133.483 14.236 133.159 14.5 132.751 14.644C132.367 14.788 131.971 14.86 131.563 14.86C131.275 14.86 131.011 14.836 130.771 14.788C130.531 14.74 130.327 14.704 130.159 14.68C129.967 14.632 129.775 14.596 129.583 14.572C129.415 14.548 129.259 14.536 129.115 14.536C128.587 14.536 128.203 14.692 127.963 15.004C127.747 15.292 127.579 15.7 127.459 16.228C127.291 16.972 127.147 17.74 127.027 18.532C126.907 19.3 126.763 20.068 126.595 20.836C126.427 21.652 126.235 22.444 126.019 23.212C125.827 23.956 125.635 24.604 125.443 25.156C125.347 25.468 125.191 25.624 124.975 25.624C124.807 25.624 124.723 25.516 124.723 25.3C124.723 25.252 124.723 25.192 124.723 25.12C124.747 25.048 124.771 24.976 124.795 24.904C125.011 24.28 125.203 23.62 125.371 22.924C125.563 22.228 125.743 21.52 125.911 20.8C126.175 19.6 126.319 18.4 126.343 17.2C126.391 16 126.559 14.824 126.847 13.672C127.015 13 127.255 12.46 127.567 12.052C127.879 11.644 128.335 11.44 128.935 11.44C129.151 11.44 129.403 11.476 129.691 11.548C130.123 11.644 130.579 11.836 131.059 12.124C131.539 12.388 132.007 12.64 132.463 12.88C132.943 13.12 133.351 13.24 133.687 13.24C133.831 13.24 133.975 13.204 134.119 13.132C134.167 12.628 134.335 12.1 134.623 11.548C134.935 10.996 135.391 10.72 135.991 10.72C136.327 10.72 136.579 10.828 136.747 11.044C136.915 11.236 136.999 11.464 136.999 11.728V11.908C136.927 12.292 136.651 12.724 136.171 13.204C135.691 13.66 135.103 14.02 134.407 14.284C134.239 14.548 133.927 15.016 133.471 15.688C133.015 16.36 132.499 17.176 131.923 18.136C131.371 19.072 130.831 20.068 130.303 21.124C130.207 21.292 130.075 21.568 129.907 21.952C129.739 22.336 129.583 22.732 129.439 23.14C129.895 22.54 130.459 22.084 131.131 21.772C131.803 21.436 132.475 21.268 133.147 21.268C133.843 21.268 134.491 21.448 135.091 21.808C135.691 22.168 136.147 22.768 136.459 23.608C137.227 23.296 137.995 23.14 138.763 23.14H139.123C139.291 23.14 139.375 23.236 139.375 23.428C139.375 23.62 139.303 23.716 139.159 23.716C138.391 23.788 137.563 24.028 136.675 24.436C136.771 24.772 136.831 25.144 136.855 25.552C136.903 25.96 136.927 26.368 136.927 26.776C136.927 27.952 136.783 29.2 136.495 30.52C136.207 31.84 135.799 33.124 135.271 34.372C134.767 35.644 134.155 36.796 133.435 37.828C132.739 38.86 131.959 39.676 131.095 40.276C130.231 40.9 129.307 41.212 128.323 41.212ZM128.179 40.42C129.091 40.42 129.919 40.024 130.663 39.232C131.431 38.464 132.079 37.456 132.607 36.208C133.159 34.984 133.579 33.652 133.867 32.212C134.179 30.796 134.335 29.44 134.335 28.144C134.335 27.76 134.311 27.388 134.263 27.028C134.239 26.668 134.203 26.332 134.155 26.02C132.523 27.196 131.119 28.504 129.943 29.944C128.791 31.384 127.927 32.812 127.351 34.228C127.087 34.9 126.883 35.536 126.739 36.136C126.619 36.76 126.559 37.324 126.559 37.828C126.559 38.62 126.703 39.244 126.991 39.7C127.279 40.18 127.675 40.42 128.179 40.42ZM148.569 28.18C147.825 28.18 147.225 27.952 146.769 27.496C146.313 27.016 145.953 26.416 145.689 25.696C145.449 24.952 145.281 24.208 145.185 23.464C145.089 22.696 145.041 22.024 145.041 21.448C144.753 22.528 144.381 23.584 143.925 24.616C143.493 25.648 143.013 26.5 142.485 27.172C141.957 27.82 141.381 28.144 140.757 28.144H140.721C140.145 28.144 139.665 27.88 139.281 27.352C138.897 26.8 138.609 26.08 138.417 25.192C138.225 24.304 138.129 23.344 138.129 22.312V21.952C138.129 20.992 138.213 19.936 138.381 18.784C138.549 17.608 138.849 16.492 139.281 15.436C139.713 14.38 140.301 13.516 141.045 12.844C141.813 12.148 142.785 11.8 143.961 11.8C144.417 11.8 144.825 11.908 145.185 12.124C145.569 12.316 145.845 12.604 146.013 12.988C146.181 12.796 146.409 12.64 146.697 12.52C146.985 12.4 147.333 12.34 147.741 12.34C147.885 12.34 148.041 12.352 148.209 12.376C148.401 12.4 148.593 12.436 148.785 12.484C148.641 13.036 148.473 13.792 148.281 14.752C148.089 15.712 147.921 16.768 147.777 17.92C147.657 19.048 147.597 20.152 147.597 21.232V21.376C147.597 21.832 147.621 22.372 147.669 22.996C147.717 23.62 147.801 24.232 147.921 24.832C148.041 25.432 148.209 25.936 148.425 26.344C148.641 26.752 148.917 26.956 149.253 26.956H149.289C149.481 26.956 149.685 26.86 149.901 26.668C150.141 26.476 150.393 26.116 150.657 25.588C151.017 24.892 151.353 23.992 151.665 22.888C151.713 22.672 151.809 22.564 151.953 22.564C152.073 22.564 152.133 22.708 152.133 22.996V23.14C152.085 23.764 151.917 24.472 151.629 25.264C151.341 26.056 150.933 26.74 150.405 27.316C149.901 27.892 149.289 28.18 148.569 28.18ZM141.981 25.192C142.365 25.192 142.713 24.916 143.025 24.364C143.361 23.812 143.661 23.14 143.925 22.348C144.189 21.556 144.417 20.788 144.609 20.044C144.897 18.94 145.089 17.824 145.185 16.696C145.281 15.544 145.485 14.416 145.797 13.312C145.509 13 145.185 12.844 144.825 12.844C144.297 12.844 143.757 13.108 143.205 13.636C142.653 14.164 142.221 14.764 141.909 15.436C141.525 16.276 141.237 17.26 141.045 18.388C140.877 19.516 140.793 20.596 140.793 21.628C140.793 21.892 140.793 22.156 140.793 22.42C140.817 22.684 140.841 22.936 140.865 23.176C140.913 23.896 141.045 24.412 141.261 24.724C141.501 25.036 141.741 25.192 141.981 25.192ZM158.366 28.18C157.574 28.18 156.95 27.928 156.494 27.424C156.038 26.896 155.714 26.224 155.522 25.408C155.354 24.568 155.27 23.668 155.27 22.708C155.27 21.676 155.33 20.668 155.45 19.684C155.594 18.676 155.738 17.788 155.882 17.02C156.05 16.252 156.17 15.724 156.242 15.436C155.57 15.388 155.042 15.28 154.658 15.112C154.274 14.944 153.95 14.74 153.686 14.5C153.59 15.652 153.434 16.888 153.218 18.208C153.026 19.528 152.798 20.8 152.534 22.024C152.27 23.224 151.982 24.256 151.67 25.12C151.574 25.432 151.418 25.588 151.202 25.588C151.034 25.588 150.95 25.48 150.95 25.264C150.95 25.216 150.95 25.156 150.95 25.084C150.974 25.012 150.998 24.94 151.022 24.868C151.406 23.764 151.73 22.564 151.994 21.268C152.258 19.948 152.462 18.676 152.606 17.452C152.75 16.228 152.822 15.208 152.822 14.392V13.996C152.222 13.732 151.778 13.348 151.49 12.844C151.226 12.34 151.094 11.86 151.094 11.404C151.094 11.068 151.154 10.768 151.274 10.504C151.418 10.24 151.622 10.108 151.886 10.108H151.958C152.294 10.108 152.594 10.348 152.858 10.828C153.122 11.284 153.338 11.8 153.506 12.376C153.674 12.928 153.758 13.372 153.758 13.708C154.046 13.924 154.358 14.08 154.694 14.176C155.054 14.272 155.354 14.32 155.594 14.32C155.906 14.32 156.11 14.272 156.206 14.176C156.398 13.984 156.626 13.708 156.89 13.348C157.178 12.988 157.622 12.808 158.222 12.808C158.63 12.808 159.122 12.928 159.698 13.168C159.41 13.768 159.146 14.452 158.906 15.22C158.666 15.964 158.462 16.756 158.294 17.596C158.27 17.788 158.21 18.172 158.114 18.748C158.018 19.324 157.934 19.984 157.862 20.728C157.79 21.472 157.754 22.216 157.754 22.96C157.754 24.016 157.862 24.952 158.078 25.768C158.318 26.56 158.75 26.956 159.374 26.956C159.758 26.956 160.094 26.8 160.382 26.488C160.67 26.176 160.922 25.792 161.138 25.336C161.354 24.856 161.534 24.4 161.678 23.968C161.822 23.512 161.93 23.152 162.002 22.888C162.05 22.672 162.146 22.564 162.29 22.564C162.41 22.564 162.47 22.696 162.47 22.96V23.14C162.47 24.244 162.266 25.18 161.858 25.948C161.474 26.692 160.97 27.256 160.346 27.64C159.722 28 159.062 28.18 158.366 28.18ZM172.121 28.18C171.257 28.18 170.597 27.82 170.141 27.1C169.709 26.38 169.409 25.456 169.241 24.328C169.097 23.2 169.025 22.024 169.025 20.8C168.713 21.952 168.317 23.092 167.837 24.22C167.357 25.348 166.817 26.284 166.217 27.028C165.641 27.772 165.029 28.144 164.381 28.144C163.805 28.144 163.337 27.88 162.977 27.352C162.617 26.8 162.353 26.08 162.185 25.192C162.017 24.304 161.933 23.344 161.933 22.312C161.933 21.568 161.993 20.728 162.113 19.792C162.233 18.856 162.425 17.92 162.689 16.984C162.953 16.048 163.313 15.196 163.769 14.428C164.249 13.636 164.837 13 165.533 12.52C166.229 12.04 167.057 11.8 168.017 11.8C168.569 11.8 169.013 11.92 169.349 12.16C169.397 10.888 169.457 9.664 169.529 8.488C169.601 7.312 169.685 6.388 169.781 5.716C169.853 5.26 169.949 4.744 170.069 4.168C170.213 3.592 170.405 3.04 170.645 2.512C170.909 1.96 171.221 1.504 171.581 1.144C171.965 0.783998 172.421 0.603999 172.949 0.603999C173.621 0.603999 174.125 0.771999 174.461 1.108C174.797 1.42 175.025 1.828 175.145 2.332C175.289 2.812 175.361 3.328 175.361 3.88C175.361 4.192 175.349 4.516 175.325 4.852C175.301 5.164 175.265 5.452 175.217 5.716C175.073 6.892 174.797 8.188 174.389 9.604C173.981 11.02 173.501 12.4 172.949 13.744C172.421 15.064 171.905 16.204 171.401 17.164C171.377 17.332 171.353 17.704 171.329 18.28C171.305 18.856 171.293 19.528 171.293 20.296C171.293 21.016 171.305 21.772 171.329 22.564C171.377 23.332 171.461 24.052 171.581 24.724C171.701 25.372 171.857 25.912 172.049 26.344C172.265 26.752 172.541 26.956 172.877 26.956C173.213 26.956 173.513 26.8 173.777 26.488C174.041 26.152 174.281 25.744 174.497 25.264C174.713 24.784 174.881 24.328 175.001 23.896C175.145 23.44 175.253 23.104 175.325 22.888C175.373 22.696 175.469 22.6 175.613 22.6C175.733 22.6 175.793 22.732 175.793 22.996V23.176C175.793 23.824 175.637 24.544 175.325 25.336C175.037 26.104 174.617 26.776 174.065 27.352C173.537 27.904 172.889 28.18 172.121 28.18ZM171.329 15.58C171.785 14.596 172.217 13.492 172.625 12.268C173.033 11.02 173.369 9.748 173.633 8.452C173.921 7.156 174.065 5.944 174.065 4.816C174.065 4.624 174.065 4.444 174.065 4.276C174.065 4.108 174.053 3.94 174.029 3.772C174.005 3.436 173.933 3.148 173.813 2.908C173.693 2.644 173.537 2.512 173.345 2.512C173.249 2.512 173.129 2.596 172.985 2.764C172.841 2.908 172.697 3.184 172.553 3.592C172.481 3.808 172.385 4.3 172.265 5.068C172.169 5.812 172.061 6.7 171.941 7.732C171.845 8.74 171.749 9.772 171.653 10.828C171.557 11.86 171.473 12.796 171.401 13.636C171.353 14.452 171.329 15.028 171.329 15.364V15.58ZM165.641 25.192C166.049 25.192 166.433 24.904 166.793 24.328C167.153 23.728 167.477 23.008 167.765 22.168C168.077 21.328 168.329 20.536 168.521 19.792C168.785 18.832 168.965 17.872 169.061 16.912C169.181 15.928 169.253 14.944 169.277 13.96L169.313 12.952C169.169 12.88 169.001 12.844 168.809 12.844C168.281 12.844 167.741 13.108 167.189 13.636C166.637 14.14 166.193 14.74 165.857 15.436C165.425 16.348 165.101 17.416 164.885 18.64C164.693 19.864 164.597 21.016 164.597 22.096C164.597 22.264 164.597 22.444 164.597 22.636C164.597 22.828 164.609 23.008 164.633 23.176C164.681 23.896 164.801 24.412 164.993 24.724C165.185 25.036 165.401 25.192 165.641 25.192Z" fill="black"/>
</svg>
